<mxfile host="app.diagrams.net" agent="Mozilla/5.0 (Windows NT 10.0; Win64; x64) AppleWebKit/537.36 (KHTML, like Gecko) Chrome/131.0.0.0 Safari/537.36" version="25.0.1">
  <diagram name="第 1 页" id="2RRf0Gsr0-RaK11RZiH8">
    <mxGraphModel dx="5305" dy="925" grid="0" gridSize="10" guides="1" tooltips="1" connect="1" arrows="1" fold="1" page="0" pageScale="1" pageWidth="827" pageHeight="1169" math="0" shadow="0">
      <root>
        <mxCell id="0" />
        <mxCell id="1" parent="0" />
        <mxCell id="XdBmEQdL2nDU0bVJO9cl-1" value="确定&lt;font face=&quot;Times New Roman&quot;&gt;buffer&lt;/font&gt;初始中心" style="rounded=1;whiteSpace=wrap;html=1;fillColor=#f5f5f5;fontColor=#333333;strokeColor=#666666;strokeWidth=3;fontFamily=宋体;fontStyle=1;fontSize=18;" vertex="1" parent="1">
          <mxGeometry x="-131" y="-71" width="188" height="71" as="geometry" />
        </mxCell>
        <mxCell id="XdBmEQdL2nDU0bVJO9cl-257" style="edgeStyle=none;curved=1;rounded=0;orthogonalLoop=1;jettySize=auto;html=1;exitX=1;exitY=0.5;exitDx=0;exitDy=0;entryX=0;entryY=0.5;entryDx=0;entryDy=0;fontSize=18;startSize=8;endSize=8;" edge="1" parent="1" source="XdBmEQdL2nDU0bVJO9cl-2" target="XdBmEQdL2nDU0bVJO9cl-3">
          <mxGeometry relative="1" as="geometry" />
        </mxCell>
        <mxCell id="XdBmEQdL2nDU0bVJO9cl-2" value="调整&lt;font face=&quot;Times New Roman&quot;&gt;buffer&lt;/font&gt;位置&lt;br&gt;&lt;div&gt;&lt;span style=&quot;color: rgba(0, 0, 0, 0); text-align: start; text-wrap-mode: nowrap; background-color: initial;&quot;&gt;%3CmxGraphModel%3E%3Croot%3E%3CmxCell%20id%3D%220%22%2F%3E%3CmxCell%20id%3D%221%22%20parent%3D%220%22%2F%3E%3CmxCell%20id%3D%222%22%20value%3D%22%E7%A1%AE%E5%AE%9Abuffer%E5%88%9D%E5%A7%8B%E4%B8%AD%E5%BF%83%22%20style%3D%22rounded%3D1%3BwhiteSpace%3Dwrap%3Bhtml%3D1%3B%22%20vertex%3D%221%22%20parent%3D%221%22%3E%3CmxGeometry%20x%3D%22222%22%20y%3D%2262%22%20width%3D%22120%22%20height%3D%2260%22%20as%3D%22geometry%22%2F%3E%3C%2FmxCell%3E%3C%2Froot%3E%3C%2FmxGraphModel%3E&lt;/span&gt;&lt;span style=&quot;color: rgba(0, 0, 0, 0); text-align: start; text-wrap-mode: nowrap; background-color: initial;&quot;&gt;%3CmxGraphModel%3E%3Croot%3E%3CmxCell%20id%3D%220%22%2F%3E%3CmxCell%20id%3D%221%22%20parent%3D%220%22%2F%3E%3CmxCell%20id%3D%222%22%20value%3D%22%E7%A1%AE%E5%AE%9Abuffer%E5%88%9D%E5%A7%8B%E4%B8%AD%E5%BF%83%22%20style%3D%22rounded%3D1%3BwhiteSpace%3Dwrap%3Bhtml%3D1%3B%22%20vertex%3D%221%22%20parent%3D%221%22%3E%3CmxGeometry%20x%3D%22222%22%20y%3D%2262%22%20width%3D%22120%22%20height%3D%2260%22%20as%3D%22geometry%22%2F%3E%3C%2FmxCell%3E%3C%2Froot%3E%3C%2FmxGraphModel%3E&lt;/span&gt;&lt;span style=&quot;background-color: initial;&quot;&gt;（解决&lt;font face=&quot;Times New Roman&quot;&gt;overlap&lt;/font&gt;）&lt;/span&gt;&lt;/div&gt;" style="rounded=1;whiteSpace=wrap;html=1;fillColor=#f5f5f5;fontColor=#333333;strokeColor=#666666;strokeWidth=3;fontFamily=宋体;fontStyle=1;fontSize=18;" vertex="1" parent="1">
          <mxGeometry x="210" y="-96" width="164" height="110" as="geometry" />
        </mxCell>
        <mxCell id="XdBmEQdL2nDU0bVJO9cl-3" value="解决&lt;font face=&quot;Times New Roman&quot;&gt;RC&lt;/font&gt;限制和&lt;font face=&quot;Times New Roman&quot;&gt;Fanout&lt;/font&gt;限制" style="rounded=1;whiteSpace=wrap;html=1;strokeWidth=2;fontFamily=宋体;fontStyle=1;fillColor=#f5f5f5;fontColor=#333333;strokeColor=#666666;fontSize=18;" vertex="1" parent="1">
          <mxGeometry x="669" y="-79" width="231" height="76" as="geometry" />
        </mxCell>
        <mxCell id="XdBmEQdL2nDU0bVJO9cl-6" value="" style="group;fontFamily=宋体;fontStyle=1;fontSize=18;" vertex="1" connectable="0" parent="1">
          <mxGeometry x="207.5" y="193" width="147" height="136.5" as="geometry" />
        </mxCell>
        <mxCell id="XdBmEQdL2nDU0bVJO9cl-7" value="" style="rounded=1;whiteSpace=wrap;html=1;fillColor=default;fontColor=#333333;strokeColor=#666666;strokeWidth=2;fontFamily=宋体;fontStyle=1;fontSize=18;" vertex="1" parent="XdBmEQdL2nDU0bVJO9cl-6">
          <mxGeometry width="147" height="136.5" as="geometry" />
        </mxCell>
        <mxCell id="XdBmEQdL2nDU0bVJO9cl-8" value="" style="rounded=0;whiteSpace=wrap;html=1;fillColor=#dae8fc;strokeColor=#6c8ebf;fontFamily=宋体;fontStyle=1;fontSize=18;" vertex="1" parent="XdBmEQdL2nDU0bVJO9cl-6">
          <mxGeometry x="19" y="22.5" width="30" height="15" as="geometry" />
        </mxCell>
        <mxCell id="XdBmEQdL2nDU0bVJO9cl-9" value="" style="rounded=0;whiteSpace=wrap;html=1;fillColor=#dae8fc;strokeColor=#6c8ebf;fontFamily=宋体;fontStyle=1;fontSize=18;" vertex="1" parent="XdBmEQdL2nDU0bVJO9cl-6">
          <mxGeometry x="96" y="22.5" width="30" height="15" as="geometry" />
        </mxCell>
        <mxCell id="XdBmEQdL2nDU0bVJO9cl-10" value="" style="rounded=0;whiteSpace=wrap;html=1;fillColor=#dae8fc;strokeColor=#6c8ebf;fontFamily=宋体;fontStyle=1;fontSize=18;" vertex="1" parent="XdBmEQdL2nDU0bVJO9cl-6">
          <mxGeometry x="96" y="67.5" width="30" height="15" as="geometry" />
        </mxCell>
        <mxCell id="XdBmEQdL2nDU0bVJO9cl-11" value="" style="rounded=0;whiteSpace=wrap;html=1;fillColor=#dae8fc;strokeColor=#6c8ebf;fontFamily=宋体;fontStyle=1;fontSize=18;" vertex="1" parent="XdBmEQdL2nDU0bVJO9cl-6">
          <mxGeometry x="96" y="37.5" width="30" height="15" as="geometry" />
        </mxCell>
        <mxCell id="XdBmEQdL2nDU0bVJO9cl-12" value="" style="rounded=0;whiteSpace=wrap;html=1;fillColor=#dae8fc;strokeColor=#6c8ebf;fontFamily=宋体;fontStyle=1;fontSize=18;" vertex="1" parent="XdBmEQdL2nDU0bVJO9cl-6">
          <mxGeometry x="96" y="52.5" width="30" height="15" as="geometry" />
        </mxCell>
        <mxCell id="XdBmEQdL2nDU0bVJO9cl-13" value="" style="rounded=0;whiteSpace=wrap;html=1;fillColor=#dae8fc;strokeColor=#6c8ebf;fontFamily=宋体;fontStyle=1;fontSize=18;" vertex="1" parent="XdBmEQdL2nDU0bVJO9cl-6">
          <mxGeometry x="96" y="82.5" width="30" height="15" as="geometry" />
        </mxCell>
        <mxCell id="XdBmEQdL2nDU0bVJO9cl-14" value="" style="rounded=0;whiteSpace=wrap;html=1;fillColor=#dae8fc;strokeColor=#6c8ebf;fontFamily=宋体;fontStyle=1;fontSize=18;" vertex="1" parent="XdBmEQdL2nDU0bVJO9cl-6">
          <mxGeometry x="19" y="106.5" width="30" height="15" as="geometry" />
        </mxCell>
        <mxCell id="XdBmEQdL2nDU0bVJO9cl-15" value="" style="rounded=0;whiteSpace=wrap;html=1;fillColor=#dae8fc;strokeColor=#6c8ebf;fontFamily=宋体;fontStyle=1;fontSize=18;" vertex="1" parent="XdBmEQdL2nDU0bVJO9cl-6">
          <mxGeometry x="66" y="67.5" width="30" height="15" as="geometry" />
        </mxCell>
        <mxCell id="XdBmEQdL2nDU0bVJO9cl-16" value="" style="rounded=0;whiteSpace=wrap;html=1;fillColor=#dae8fc;strokeColor=#6c8ebf;fontFamily=宋体;fontStyle=1;fontSize=18;" vertex="1" parent="XdBmEQdL2nDU0bVJO9cl-6">
          <mxGeometry x="66" y="82.5" width="30" height="15" as="geometry" />
        </mxCell>
        <mxCell id="XdBmEQdL2nDU0bVJO9cl-17" value="" style="rounded=0;whiteSpace=wrap;html=1;fillColor=#f8cecc;strokeColor=#b85450;fontFamily=宋体;fontStyle=1;fontSize=18;" vertex="1" parent="XdBmEQdL2nDU0bVJO9cl-6">
          <mxGeometry x="61" y="62.5" width="15" height="15" as="geometry" />
        </mxCell>
        <mxCell id="XdBmEQdL2nDU0bVJO9cl-18" value="" style="rounded=0;whiteSpace=wrap;html=1;fillColor=none;fontFamily=宋体;fontStyle=1;fontSize=18;" vertex="1" parent="XdBmEQdL2nDU0bVJO9cl-6">
          <mxGeometry x="11.5" y="15" width="45" height="30" as="geometry" />
        </mxCell>
        <mxCell id="XdBmEQdL2nDU0bVJO9cl-19" value="" style="endArrow=none;html=1;rounded=0;fontSize=18;startSize=8;endSize=8;curved=1;fontFamily=宋体;fontStyle=1" edge="1" parent="XdBmEQdL2nDU0bVJO9cl-6" source="XdBmEQdL2nDU0bVJO9cl-35">
          <mxGeometry width="50" height="50" relative="1" as="geometry">
            <mxPoint x="58.5" y="60" as="sourcePoint" />
            <mxPoint x="88.5" y="60" as="targetPoint" />
          </mxGeometry>
        </mxCell>
        <mxCell id="XdBmEQdL2nDU0bVJO9cl-20" value="" style="endArrow=none;html=1;rounded=0;fontSize=18;startSize=8;endSize=8;curved=1;fontFamily=宋体;fontStyle=1" edge="1" parent="XdBmEQdL2nDU0bVJO9cl-6" source="XdBmEQdL2nDU0bVJO9cl-27">
          <mxGeometry width="50" height="50" relative="1" as="geometry">
            <mxPoint x="88.5" y="15" as="sourcePoint" />
            <mxPoint x="88.5" y="60" as="targetPoint" />
          </mxGeometry>
        </mxCell>
        <mxCell id="XdBmEQdL2nDU0bVJO9cl-21" value="" style="endArrow=none;html=1;rounded=0;fontSize=18;startSize=8;endSize=8;curved=1;fontFamily=宋体;fontStyle=1" edge="1" parent="XdBmEQdL2nDU0bVJO9cl-6" source="XdBmEQdL2nDU0bVJO9cl-29">
          <mxGeometry width="50" height="50" relative="1" as="geometry">
            <mxPoint x="88.5" y="15" as="sourcePoint" />
            <mxPoint x="133.5" y="15" as="targetPoint" />
          </mxGeometry>
        </mxCell>
        <mxCell id="XdBmEQdL2nDU0bVJO9cl-22" value="" style="endArrow=none;html=1;rounded=0;fontSize=18;startSize=8;endSize=8;curved=1;fontFamily=宋体;fontStyle=1" edge="1" parent="XdBmEQdL2nDU0bVJO9cl-6" source="XdBmEQdL2nDU0bVJO9cl-45">
          <mxGeometry width="50" height="50" relative="1" as="geometry">
            <mxPoint x="133.5" y="15" as="sourcePoint" />
            <mxPoint x="133.5" y="105" as="targetPoint" />
          </mxGeometry>
        </mxCell>
        <mxCell id="XdBmEQdL2nDU0bVJO9cl-23" value="" style="endArrow=none;html=1;rounded=0;fontSize=18;startSize=8;endSize=8;curved=1;fontFamily=宋体;fontStyle=1" edge="1" parent="XdBmEQdL2nDU0bVJO9cl-6" source="XdBmEQdL2nDU0bVJO9cl-33">
          <mxGeometry width="50" height="50" relative="1" as="geometry">
            <mxPoint x="133.5" y="105" as="sourcePoint" />
            <mxPoint x="58.5" y="105" as="targetPoint" />
          </mxGeometry>
        </mxCell>
        <mxCell id="XdBmEQdL2nDU0bVJO9cl-24" value="" style="endArrow=none;html=1;rounded=0;fontSize=18;startSize=8;endSize=8;curved=1;fontFamily=宋体;fontStyle=1" edge="1" parent="XdBmEQdL2nDU0bVJO9cl-6" source="XdBmEQdL2nDU0bVJO9cl-41">
          <mxGeometry width="50" height="50" relative="1" as="geometry">
            <mxPoint x="58.5" y="60" as="sourcePoint" />
            <mxPoint x="58.5" y="105" as="targetPoint" />
          </mxGeometry>
        </mxCell>
        <mxCell id="XdBmEQdL2nDU0bVJO9cl-25" value="" style="rounded=0;whiteSpace=wrap;html=1;fillColor=none;fontFamily=宋体;fontStyle=1;fontSize=18;" vertex="1" parent="XdBmEQdL2nDU0bVJO9cl-6">
          <mxGeometry x="11.5" y="99" width="45" height="30" as="geometry" />
        </mxCell>
        <mxCell id="XdBmEQdL2nDU0bVJO9cl-26" value="" style="endArrow=none;html=1;rounded=0;fontSize=18;startSize=8;endSize=8;curved=1;fontFamily=宋体;fontStyle=1" edge="1" parent="XdBmEQdL2nDU0bVJO9cl-6" target="XdBmEQdL2nDU0bVJO9cl-27">
          <mxGeometry width="50" height="50" relative="1" as="geometry">
            <mxPoint x="88.5" y="15" as="sourcePoint" />
            <mxPoint x="88.5" y="60" as="targetPoint" />
          </mxGeometry>
        </mxCell>
        <mxCell id="XdBmEQdL2nDU0bVJO9cl-27" value="" style="shape=waypoint;fillStyle=solid;size=6;pointerEvents=1;points=[];fillColor=none;resizable=0;rotatable=0;perimeter=centerPerimeter;snapToPoint=1;fontFamily=宋体;fontStyle=1;fontSize=18;" vertex="1" parent="XdBmEQdL2nDU0bVJO9cl-6">
          <mxGeometry x="78" y="5.5" width="20" height="20" as="geometry" />
        </mxCell>
        <mxCell id="XdBmEQdL2nDU0bVJO9cl-28" value="" style="endArrow=none;html=1;rounded=0;fontSize=18;startSize=8;endSize=8;curved=1;fontFamily=宋体;fontStyle=1" edge="1" parent="XdBmEQdL2nDU0bVJO9cl-6" target="XdBmEQdL2nDU0bVJO9cl-29">
          <mxGeometry width="50" height="50" relative="1" as="geometry">
            <mxPoint x="88.5" y="15" as="sourcePoint" />
            <mxPoint x="133.5" y="15" as="targetPoint" />
          </mxGeometry>
        </mxCell>
        <mxCell id="XdBmEQdL2nDU0bVJO9cl-29" value="" style="shape=waypoint;fillStyle=solid;size=6;pointerEvents=1;points=[];fillColor=none;resizable=0;rotatable=0;perimeter=centerPerimeter;snapToPoint=1;fontFamily=宋体;fontStyle=1;fontSize=18;" vertex="1" parent="XdBmEQdL2nDU0bVJO9cl-6">
          <mxGeometry x="123" y="5.5" width="20" height="20" as="geometry" />
        </mxCell>
        <mxCell id="XdBmEQdL2nDU0bVJO9cl-30" value="" style="endArrow=none;html=1;rounded=0;fontSize=18;startSize=8;endSize=8;curved=1;fontFamily=宋体;fontStyle=1" edge="1" parent="XdBmEQdL2nDU0bVJO9cl-6" target="XdBmEQdL2nDU0bVJO9cl-31">
          <mxGeometry width="50" height="50" relative="1" as="geometry">
            <mxPoint x="133.5" y="105" as="sourcePoint" />
            <mxPoint x="58.5" y="105" as="targetPoint" />
          </mxGeometry>
        </mxCell>
        <mxCell id="XdBmEQdL2nDU0bVJO9cl-31" value="" style="shape=waypoint;fillStyle=solid;size=6;pointerEvents=1;points=[];fillColor=none;resizable=0;rotatable=0;perimeter=centerPerimeter;snapToPoint=1;fontFamily=宋体;fontStyle=1;fontSize=18;" vertex="1" parent="XdBmEQdL2nDU0bVJO9cl-6">
          <mxGeometry x="123" y="94.5" width="20" height="20" as="geometry" />
        </mxCell>
        <mxCell id="XdBmEQdL2nDU0bVJO9cl-32" value="" style="endArrow=none;html=1;rounded=0;fontSize=18;startSize=8;endSize=8;curved=1;fontFamily=宋体;fontStyle=1" edge="1" parent="XdBmEQdL2nDU0bVJO9cl-6" source="XdBmEQdL2nDU0bVJO9cl-47" target="XdBmEQdL2nDU0bVJO9cl-33">
          <mxGeometry width="50" height="50" relative="1" as="geometry">
            <mxPoint x="133" y="104.5" as="sourcePoint" />
            <mxPoint x="58.5" y="105" as="targetPoint" />
          </mxGeometry>
        </mxCell>
        <mxCell id="XdBmEQdL2nDU0bVJO9cl-33" value="" style="shape=waypoint;fillStyle=solid;size=6;pointerEvents=1;points=[];fillColor=none;resizable=0;rotatable=0;perimeter=centerPerimeter;snapToPoint=1;fontFamily=宋体;fontStyle=1;fontSize=18;" vertex="1" parent="XdBmEQdL2nDU0bVJO9cl-6">
          <mxGeometry x="49" y="94.5" width="20" height="20" as="geometry" />
        </mxCell>
        <mxCell id="XdBmEQdL2nDU0bVJO9cl-34" value="" style="endArrow=none;html=1;rounded=0;fontSize=18;startSize=8;endSize=8;curved=1;fontFamily=宋体;fontStyle=1" edge="1" parent="XdBmEQdL2nDU0bVJO9cl-6" target="XdBmEQdL2nDU0bVJO9cl-35">
          <mxGeometry width="50" height="50" relative="1" as="geometry">
            <mxPoint x="58.5" y="60" as="sourcePoint" />
            <mxPoint x="88.5" y="60" as="targetPoint" />
          </mxGeometry>
        </mxCell>
        <mxCell id="XdBmEQdL2nDU0bVJO9cl-35" value="" style="shape=waypoint;fillStyle=solid;size=6;pointerEvents=1;points=[];fillColor=none;resizable=0;rotatable=0;perimeter=centerPerimeter;snapToPoint=1;fontFamily=宋体;fontStyle=1;fontSize=18;" vertex="1" parent="XdBmEQdL2nDU0bVJO9cl-6">
          <mxGeometry x="49" y="50" width="20" height="20" as="geometry" />
        </mxCell>
        <mxCell id="XdBmEQdL2nDU0bVJO9cl-36" value="" style="endArrow=none;dashed=1;html=1;strokeWidth=2;rounded=0;fontSize=18;startSize=8;endSize=8;curved=1;dashPattern=1 2;fontFamily=宋体;fontStyle=1" edge="1" parent="XdBmEQdL2nDU0bVJO9cl-6">
          <mxGeometry width="50" height="50" relative="1" as="geometry">
            <mxPoint x="58.5" y="70" as="sourcePoint" />
            <mxPoint x="133.5" y="70" as="targetPoint" />
          </mxGeometry>
        </mxCell>
        <mxCell id="XdBmEQdL2nDU0bVJO9cl-37" value="" style="endArrow=none;html=1;strokeWidth=2;rounded=0;fontSize=18;startSize=8;endSize=8;curved=1;dashed=1;dashPattern=1 1;fontFamily=宋体;fontStyle=1" edge="1" parent="XdBmEQdL2nDU0bVJO9cl-6" source="XdBmEQdL2nDU0bVJO9cl-39">
          <mxGeometry width="50" height="50" relative="1" as="geometry">
            <mxPoint x="68.5" y="60" as="sourcePoint" />
            <mxPoint x="68.5" y="105" as="targetPoint" />
          </mxGeometry>
        </mxCell>
        <mxCell id="XdBmEQdL2nDU0bVJO9cl-38" value="" style="endArrow=none;html=1;strokeWidth=2;rounded=0;fontSize=18;startSize=8;endSize=8;curved=1;dashed=1;dashPattern=1 1;fontFamily=宋体;fontStyle=1" edge="1" parent="XdBmEQdL2nDU0bVJO9cl-6" source="XdBmEQdL2nDU0bVJO9cl-43" target="XdBmEQdL2nDU0bVJO9cl-39">
          <mxGeometry width="50" height="50" relative="1" as="geometry">
            <mxPoint x="68.5" y="60" as="sourcePoint" />
            <mxPoint x="68.5" y="105" as="targetPoint" />
          </mxGeometry>
        </mxCell>
        <mxCell id="XdBmEQdL2nDU0bVJO9cl-39" value="" style="shape=waypoint;fillStyle=solid;size=6;pointerEvents=1;points=[];fillColor=#f8cecc;resizable=0;rotatable=0;perimeter=centerPerimeter;snapToPoint=1;strokeColor=#b85450;fontFamily=宋体;fontStyle=1;fontSize=18;" vertex="1" parent="XdBmEQdL2nDU0bVJO9cl-6">
          <mxGeometry x="58.5" y="60" width="20" height="20" as="geometry" />
        </mxCell>
        <mxCell id="XdBmEQdL2nDU0bVJO9cl-40" value="" style="endArrow=none;html=1;rounded=0;fontSize=18;startSize=8;endSize=8;curved=1;fontFamily=宋体;fontStyle=1" edge="1" parent="XdBmEQdL2nDU0bVJO9cl-6" target="XdBmEQdL2nDU0bVJO9cl-41">
          <mxGeometry width="50" height="50" relative="1" as="geometry">
            <mxPoint x="58.5" y="60" as="sourcePoint" />
            <mxPoint x="58.5" y="105" as="targetPoint" />
          </mxGeometry>
        </mxCell>
        <mxCell id="XdBmEQdL2nDU0bVJO9cl-41" value="" style="shape=waypoint;fillStyle=solid;size=6;pointerEvents=1;points=[];fillColor=#0050ef;resizable=0;rotatable=0;perimeter=centerPerimeter;snapToPoint=1;fontColor=#ffffff;strokeColor=#001DBC;fontFamily=宋体;fontStyle=1;fontSize=18;" vertex="1" parent="XdBmEQdL2nDU0bVJO9cl-6">
          <mxGeometry x="49" y="60" width="20" height="20" as="geometry" />
        </mxCell>
        <mxCell id="XdBmEQdL2nDU0bVJO9cl-42" value="" style="endArrow=none;html=1;strokeWidth=2;rounded=0;fontSize=18;startSize=8;endSize=8;curved=1;dashed=1;dashPattern=1 1;fontFamily=宋体;fontStyle=1" edge="1" parent="XdBmEQdL2nDU0bVJO9cl-6" target="XdBmEQdL2nDU0bVJO9cl-43">
          <mxGeometry width="50" height="50" relative="1" as="geometry">
            <mxPoint x="68.5" y="60" as="sourcePoint" />
            <mxPoint x="69" y="70.5" as="targetPoint" />
          </mxGeometry>
        </mxCell>
        <mxCell id="XdBmEQdL2nDU0bVJO9cl-43" value="" style="shape=waypoint;fillStyle=solid;size=6;pointerEvents=1;points=[];fillColor=#0050ef;resizable=0;rotatable=0;perimeter=centerPerimeter;snapToPoint=1;strokeColor=#001DBC;fontColor=#ffffff;fontFamily=宋体;fontStyle=1;fontSize=18;" vertex="1" parent="XdBmEQdL2nDU0bVJO9cl-6">
          <mxGeometry x="58.5" y="50" width="20" height="20" as="geometry" />
        </mxCell>
        <mxCell id="XdBmEQdL2nDU0bVJO9cl-44" value="" style="endArrow=none;html=1;rounded=0;fontSize=18;startSize=8;endSize=8;curved=1;fontFamily=宋体;fontStyle=1" edge="1" parent="XdBmEQdL2nDU0bVJO9cl-6" target="XdBmEQdL2nDU0bVJO9cl-45">
          <mxGeometry width="50" height="50" relative="1" as="geometry">
            <mxPoint x="133.5" y="15" as="sourcePoint" />
            <mxPoint x="133.5" y="105" as="targetPoint" />
          </mxGeometry>
        </mxCell>
        <mxCell id="XdBmEQdL2nDU0bVJO9cl-45" value="" style="shape=waypoint;fillStyle=solid;size=6;pointerEvents=1;points=[];fillColor=#0050ef;resizable=0;rotatable=0;perimeter=centerPerimeter;snapToPoint=1;strokeColor=#001DBC;fontColor=#ffffff;fontFamily=宋体;fontStyle=1;fontSize=18;" vertex="1" parent="XdBmEQdL2nDU0bVJO9cl-6">
          <mxGeometry x="123" y="60" width="20" height="20" as="geometry" />
        </mxCell>
        <mxCell id="XdBmEQdL2nDU0bVJO9cl-46" value="" style="endArrow=none;html=1;rounded=0;fontSize=18;startSize=8;endSize=8;curved=1;fontFamily=宋体;fontStyle=1" edge="1" parent="XdBmEQdL2nDU0bVJO9cl-6" source="XdBmEQdL2nDU0bVJO9cl-31" target="XdBmEQdL2nDU0bVJO9cl-47">
          <mxGeometry width="50" height="50" relative="1" as="geometry">
            <mxPoint x="133" y="104.5" as="sourcePoint" />
            <mxPoint x="59" y="104.5" as="targetPoint" />
          </mxGeometry>
        </mxCell>
        <mxCell id="XdBmEQdL2nDU0bVJO9cl-47" value="" style="shape=waypoint;fillStyle=solid;size=6;pointerEvents=1;points=[];fillColor=#0050ef;resizable=0;rotatable=0;perimeter=centerPerimeter;snapToPoint=1;strokeColor=#001DBC;fontColor=#ffffff;fontFamily=宋体;fontStyle=1;fontSize=18;" vertex="1" parent="XdBmEQdL2nDU0bVJO9cl-6">
          <mxGeometry x="58" y="94.5" width="20" height="20" as="geometry" />
        </mxCell>
        <mxCell id="XdBmEQdL2nDU0bVJO9cl-48" value="" style="shape=waypoint;fillStyle=solid;size=6;pointerEvents=1;points=[];fillColor=none;resizable=0;rotatable=0;perimeter=centerPerimeter;snapToPoint=1;fontFamily=宋体;fontStyle=1;fontSize=18;" vertex="1" parent="XdBmEQdL2nDU0bVJO9cl-6">
          <mxGeometry x="78" y="50" width="20" height="20" as="geometry" />
        </mxCell>
        <mxCell id="XdBmEQdL2nDU0bVJO9cl-248" value="" style="group;fontSize=18;" vertex="1" connectable="0" parent="1">
          <mxGeometry x="-183" y="193" width="199" height="160" as="geometry" />
        </mxCell>
        <mxCell id="XdBmEQdL2nDU0bVJO9cl-217" value="" style="group;strokeWidth=4;fontSize=18;" vertex="1" connectable="0" parent="XdBmEQdL2nDU0bVJO9cl-248">
          <mxGeometry x="52" width="147" height="141" as="geometry" />
        </mxCell>
        <mxCell id="XdBmEQdL2nDU0bVJO9cl-218" value="" style="rounded=1;whiteSpace=wrap;html=1;fillColor=default;fontColor=#333333;strokeColor=#666666;strokeWidth=2;fontSize=18;" vertex="1" parent="XdBmEQdL2nDU0bVJO9cl-217">
          <mxGeometry width="147" height="136.5" as="geometry" />
        </mxCell>
        <mxCell id="XdBmEQdL2nDU0bVJO9cl-219" value="" style="rounded=0;whiteSpace=wrap;html=1;fillColor=#dae8fc;strokeColor=#6c8ebf;fontSize=18;" vertex="1" parent="XdBmEQdL2nDU0bVJO9cl-217">
          <mxGeometry x="19" y="22.5" width="30" height="15" as="geometry" />
        </mxCell>
        <mxCell id="XdBmEQdL2nDU0bVJO9cl-220" value="" style="rounded=0;whiteSpace=wrap;html=1;fillColor=#dae8fc;strokeColor=#6c8ebf;fontSize=18;" vertex="1" parent="XdBmEQdL2nDU0bVJO9cl-217">
          <mxGeometry x="96" y="22.5" width="30" height="15" as="geometry" />
        </mxCell>
        <mxCell id="XdBmEQdL2nDU0bVJO9cl-221" value="" style="rounded=0;whiteSpace=wrap;html=1;fillColor=#dae8fc;strokeColor=#6c8ebf;fontSize=18;" vertex="1" parent="XdBmEQdL2nDU0bVJO9cl-217">
          <mxGeometry x="96" y="67.5" width="30" height="15" as="geometry" />
        </mxCell>
        <mxCell id="XdBmEQdL2nDU0bVJO9cl-222" value="" style="rounded=0;whiteSpace=wrap;html=1;fillColor=#dae8fc;strokeColor=#6c8ebf;fontSize=18;" vertex="1" parent="XdBmEQdL2nDU0bVJO9cl-217">
          <mxGeometry x="96" y="37.5" width="30" height="15" as="geometry" />
        </mxCell>
        <mxCell id="XdBmEQdL2nDU0bVJO9cl-223" value="" style="rounded=0;whiteSpace=wrap;html=1;fillColor=#dae8fc;strokeColor=#6c8ebf;fontSize=18;" vertex="1" parent="XdBmEQdL2nDU0bVJO9cl-217">
          <mxGeometry x="96" y="52.5" width="30" height="15" as="geometry" />
        </mxCell>
        <mxCell id="XdBmEQdL2nDU0bVJO9cl-224" value="" style="rounded=0;whiteSpace=wrap;html=1;fillColor=#dae8fc;strokeColor=#6c8ebf;fontSize=18;" vertex="1" parent="XdBmEQdL2nDU0bVJO9cl-217">
          <mxGeometry x="96" y="82.5" width="30" height="15" as="geometry" />
        </mxCell>
        <mxCell id="XdBmEQdL2nDU0bVJO9cl-225" value="" style="rounded=0;whiteSpace=wrap;html=1;fillColor=#dae8fc;strokeColor=#6c8ebf;fontSize=18;" vertex="1" parent="XdBmEQdL2nDU0bVJO9cl-217">
          <mxGeometry x="19" y="104.5" width="30" height="15" as="geometry" />
        </mxCell>
        <mxCell id="XdBmEQdL2nDU0bVJO9cl-226" value="" style="rounded=0;whiteSpace=wrap;html=1;fillColor=#dae8fc;strokeColor=#6c8ebf;fontSize=18;" vertex="1" parent="XdBmEQdL2nDU0bVJO9cl-217">
          <mxGeometry x="66" y="67.5" width="30" height="15" as="geometry" />
        </mxCell>
        <mxCell id="XdBmEQdL2nDU0bVJO9cl-227" value="" style="rounded=0;whiteSpace=wrap;html=1;fillColor=#dae8fc;strokeColor=#6c8ebf;fontSize=18;" vertex="1" parent="XdBmEQdL2nDU0bVJO9cl-217">
          <mxGeometry x="66" y="82.5" width="30" height="15" as="geometry" />
        </mxCell>
        <mxCell id="XdBmEQdL2nDU0bVJO9cl-228" value="" style="rounded=0;whiteSpace=wrap;html=1;fillColor=#f8cecc;strokeColor=#b85450;opacity=60;fontSize=18;" vertex="1" parent="XdBmEQdL2nDU0bVJO9cl-217">
          <mxGeometry x="61" y="62.5" width="15" height="15" as="geometry" />
        </mxCell>
        <mxCell id="XdBmEQdL2nDU0bVJO9cl-242" value="" style="ellipse;whiteSpace=wrap;html=1;strokeWidth=2;fillWeight=2;hachureGap=8;fillColor=#990000;fillStyle=dots;sketch=1;fontSize=18;" vertex="1" parent="XdBmEQdL2nDU0bVJO9cl-217">
          <mxGeometry x="-8" y="129" width="27" height="12" as="geometry" />
        </mxCell>
        <mxCell id="XdBmEQdL2nDU0bVJO9cl-244" value="" style="rounded=0;whiteSpace=wrap;html=1;fillColor=#f8cecc;strokeColor=#b85450;opacity=60;fontSize=18;" vertex="1" parent="XdBmEQdL2nDU0bVJO9cl-217">
          <mxGeometry x="12" y="82.5" width="15" height="15" as="geometry" />
        </mxCell>
        <mxCell id="XdBmEQdL2nDU0bVJO9cl-245" value="" style="rounded=0;whiteSpace=wrap;html=1;fillColor=#f8cecc;strokeColor=#b85450;opacity=60;fontSize=18;" vertex="1" parent="XdBmEQdL2nDU0bVJO9cl-217">
          <mxGeometry x="118" y="16" width="15" height="15" as="geometry" />
        </mxCell>
        <mxCell id="XdBmEQdL2nDU0bVJO9cl-246" value="" style="rounded=0;whiteSpace=wrap;html=1;fillColor=#f8cecc;strokeColor=#b85450;opacity=60;fontSize=18;" vertex="1" parent="XdBmEQdL2nDU0bVJO9cl-217">
          <mxGeometry x="111" y="109" width="15" height="15" as="geometry" />
        </mxCell>
        <mxCell id="XdBmEQdL2nDU0bVJO9cl-247" value="" style="rounded=0;whiteSpace=wrap;html=1;fillColor=#f8cecc;strokeColor=#b85450;opacity=60;fontSize=18;" vertex="1" parent="XdBmEQdL2nDU0bVJO9cl-217">
          <mxGeometry x="23" y="14" width="15" height="15" as="geometry" />
        </mxCell>
        <mxCell id="XdBmEQdL2nDU0bVJO9cl-243" value="&lt;font face=&quot;Times New Roman&quot;&gt;CLK&lt;/font&gt;" style="text;html=1;align=center;verticalAlign=middle;whiteSpace=wrap;rounded=0;fontSize=18;" vertex="1" parent="XdBmEQdL2nDU0bVJO9cl-248">
          <mxGeometry y="130" width="60" height="30" as="geometry" />
        </mxCell>
        <mxCell id="XdBmEQdL2nDU0bVJO9cl-254" value="" style="group;fontSize=18;" vertex="1" connectable="0" parent="1">
          <mxGeometry x="511" y="71" width="484" height="433" as="geometry" />
        </mxCell>
        <mxCell id="XdBmEQdL2nDU0bVJO9cl-252" value="" style="rounded=1;whiteSpace=wrap;html=1;fillColor=#f5f5f5;fontColor=#333333;strokeColor=#666666;strokeWidth=3;fontSize=18;" vertex="1" parent="XdBmEQdL2nDU0bVJO9cl-254">
          <mxGeometry width="484" height="433" as="geometry" />
        </mxCell>
        <mxCell id="XdBmEQdL2nDU0bVJO9cl-159" value="" style="group;fontSize=18;" vertex="1" connectable="0" parent="XdBmEQdL2nDU0bVJO9cl-254">
          <mxGeometry x="267" y="57.5" width="147" height="136.5" as="geometry" />
        </mxCell>
        <mxCell id="XdBmEQdL2nDU0bVJO9cl-128" value="" style="group;strokeWidth=4;fontSize=18;" vertex="1" connectable="0" parent="XdBmEQdL2nDU0bVJO9cl-159">
          <mxGeometry width="147" height="136.5" as="geometry" />
        </mxCell>
        <mxCell id="XdBmEQdL2nDU0bVJO9cl-129" value="" style="rounded=1;whiteSpace=wrap;html=1;fillColor=default;fontColor=#333333;strokeColor=#666666;strokeWidth=2;fontSize=18;" vertex="1" parent="XdBmEQdL2nDU0bVJO9cl-128">
          <mxGeometry width="147" height="136.5" as="geometry" />
        </mxCell>
        <mxCell id="XdBmEQdL2nDU0bVJO9cl-130" value="" style="rounded=0;whiteSpace=wrap;html=1;fillColor=#dae8fc;strokeColor=#6c8ebf;fontSize=18;" vertex="1" parent="XdBmEQdL2nDU0bVJO9cl-128">
          <mxGeometry x="19" y="22.5" width="30" height="15" as="geometry" />
        </mxCell>
        <mxCell id="XdBmEQdL2nDU0bVJO9cl-131" value="" style="rounded=0;whiteSpace=wrap;html=1;fillColor=#dae8fc;strokeColor=#6c8ebf;fontSize=18;" vertex="1" parent="XdBmEQdL2nDU0bVJO9cl-128">
          <mxGeometry x="96" y="22.5" width="30" height="15" as="geometry" />
        </mxCell>
        <mxCell id="XdBmEQdL2nDU0bVJO9cl-132" value="" style="rounded=0;whiteSpace=wrap;html=1;fillColor=#dae8fc;strokeColor=#6c8ebf;fontSize=18;" vertex="1" parent="XdBmEQdL2nDU0bVJO9cl-128">
          <mxGeometry x="96" y="67.5" width="30" height="15" as="geometry" />
        </mxCell>
        <mxCell id="XdBmEQdL2nDU0bVJO9cl-133" value="" style="rounded=0;whiteSpace=wrap;html=1;fillColor=#dae8fc;strokeColor=#6c8ebf;fontSize=18;" vertex="1" parent="XdBmEQdL2nDU0bVJO9cl-128">
          <mxGeometry x="96" y="37.5" width="30" height="15" as="geometry" />
        </mxCell>
        <mxCell id="XdBmEQdL2nDU0bVJO9cl-134" value="" style="rounded=0;whiteSpace=wrap;html=1;fillColor=#dae8fc;strokeColor=#6c8ebf;fontSize=18;" vertex="1" parent="XdBmEQdL2nDU0bVJO9cl-128">
          <mxGeometry x="96" y="52.5" width="30" height="15" as="geometry" />
        </mxCell>
        <mxCell id="XdBmEQdL2nDU0bVJO9cl-135" value="" style="rounded=0;whiteSpace=wrap;html=1;fillColor=#dae8fc;strokeColor=#6c8ebf;fontSize=18;" vertex="1" parent="XdBmEQdL2nDU0bVJO9cl-128">
          <mxGeometry x="96" y="82.5" width="30" height="15" as="geometry" />
        </mxCell>
        <mxCell id="XdBmEQdL2nDU0bVJO9cl-136" value="" style="rounded=0;whiteSpace=wrap;html=1;fillColor=#dae8fc;strokeColor=#6c8ebf;fontSize=18;" vertex="1" parent="XdBmEQdL2nDU0bVJO9cl-128">
          <mxGeometry x="19" y="104.5" width="30" height="15" as="geometry" />
        </mxCell>
        <mxCell id="XdBmEQdL2nDU0bVJO9cl-137" value="" style="rounded=0;whiteSpace=wrap;html=1;fillColor=#fff2cc;strokeColor=#d6b656;fontSize=18;" vertex="1" parent="XdBmEQdL2nDU0bVJO9cl-128">
          <mxGeometry x="66" y="67.5" width="30" height="15" as="geometry" />
        </mxCell>
        <mxCell id="XdBmEQdL2nDU0bVJO9cl-138" value="" style="rounded=0;whiteSpace=wrap;html=1;fillColor=#dae8fc;strokeColor=#6c8ebf;fontSize=18;" vertex="1" parent="XdBmEQdL2nDU0bVJO9cl-128">
          <mxGeometry x="66" y="82.5" width="30" height="15" as="geometry" />
        </mxCell>
        <mxCell id="XdBmEQdL2nDU0bVJO9cl-139" value="" style="rounded=0;whiteSpace=wrap;html=1;fillColor=#f8cecc;strokeColor=#b85450;fontSize=18;" vertex="1" parent="XdBmEQdL2nDU0bVJO9cl-128">
          <mxGeometry x="51" y="52.5" width="15" height="15" as="geometry" />
        </mxCell>
        <mxCell id="XdBmEQdL2nDU0bVJO9cl-140" value="" style="shape=waypoint;sketch=0;fillStyle=solid;size=6;pointerEvents=1;points=[];fillColor=none;resizable=0;rotatable=0;perimeter=centerPerimeter;snapToPoint=1;fontSize=18;" vertex="1" parent="XdBmEQdL2nDU0bVJO9cl-128">
          <mxGeometry x="48.5" y="50" width="20" height="20" as="geometry" />
        </mxCell>
        <mxCell id="XdBmEQdL2nDU0bVJO9cl-141" value="" style="endArrow=none;html=1;rounded=0;fontSize=18;startSize=8;endSize=8;curved=1;exitX=0.401;exitY=0.833;exitDx=0;exitDy=0;exitPerimeter=0;" edge="1" parent="XdBmEQdL2nDU0bVJO9cl-128" source="XdBmEQdL2nDU0bVJO9cl-140">
          <mxGeometry width="50" height="50" relative="1" as="geometry">
            <mxPoint x="12" y="94" as="sourcePoint" />
            <mxPoint x="34" y="30" as="targetPoint" />
          </mxGeometry>
        </mxCell>
        <mxCell id="XdBmEQdL2nDU0bVJO9cl-143" value="" style="endArrow=none;html=1;rounded=0;fontSize=18;startSize=8;endSize=8;curved=1;exitX=0.5;exitY=0.55;exitDx=0;exitDy=0;exitPerimeter=0;" edge="1" parent="XdBmEQdL2nDU0bVJO9cl-128" source="XdBmEQdL2nDU0bVJO9cl-134">
          <mxGeometry width="50" height="50" relative="1" as="geometry">
            <mxPoint x="111" y="75.75" as="sourcePoint" />
            <mxPoint x="59" y="59" as="targetPoint" />
          </mxGeometry>
        </mxCell>
        <mxCell id="XdBmEQdL2nDU0bVJO9cl-144" value="" style="shape=waypoint;sketch=0;fillStyle=solid;size=6;pointerEvents=1;points=[];fillColor=#0050ef;resizable=0;rotatable=0;perimeter=centerPerimeter;snapToPoint=1;strokeColor=#001DBC;fontColor=#ffffff;fontSize=18;" vertex="1" parent="XdBmEQdL2nDU0bVJO9cl-128">
          <mxGeometry x="24" y="102" width="20" height="20" as="geometry" />
        </mxCell>
        <mxCell id="XdBmEQdL2nDU0bVJO9cl-145" value="" style="shape=waypoint;sketch=0;fillStyle=solid;size=6;pointerEvents=1;points=[];fillColor=#0050ef;resizable=0;rotatable=0;perimeter=centerPerimeter;snapToPoint=1;strokeColor=#001DBC;fontColor=#ffffff;fontSize=18;" vertex="1" parent="XdBmEQdL2nDU0bVJO9cl-128">
          <mxGeometry x="24" y="20" width="20" height="20" as="geometry" />
        </mxCell>
        <mxCell id="XdBmEQdL2nDU0bVJO9cl-146" value="" style="shape=waypoint;sketch=0;fillStyle=solid;size=6;pointerEvents=1;points=[];fillColor=#0050ef;resizable=0;rotatable=0;perimeter=centerPerimeter;snapToPoint=1;strokeColor=#001DBC;fontColor=#ffffff;fontSize=18;" vertex="1" parent="XdBmEQdL2nDU0bVJO9cl-128">
          <mxGeometry x="71" y="80" width="20" height="20" as="geometry" />
        </mxCell>
        <mxCell id="XdBmEQdL2nDU0bVJO9cl-148" value="" style="shape=waypoint;sketch=0;fillStyle=solid;size=6;pointerEvents=1;points=[];fillColor=#0050ef;resizable=0;rotatable=0;perimeter=centerPerimeter;snapToPoint=1;strokeColor=#001DBC;fontColor=#ffffff;fontSize=18;" vertex="1" parent="XdBmEQdL2nDU0bVJO9cl-128">
          <mxGeometry x="101" y="80" width="20" height="20" as="geometry" />
        </mxCell>
        <mxCell id="XdBmEQdL2nDU0bVJO9cl-149" value="" style="shape=waypoint;sketch=0;fillStyle=solid;size=6;pointerEvents=1;points=[];fillColor=#0050ef;resizable=0;rotatable=0;perimeter=centerPerimeter;snapToPoint=1;strokeColor=#001DBC;fontColor=#ffffff;fontSize=18;" vertex="1" parent="XdBmEQdL2nDU0bVJO9cl-128">
          <mxGeometry x="101" y="65" width="20" height="20" as="geometry" />
        </mxCell>
        <mxCell id="XdBmEQdL2nDU0bVJO9cl-150" value="" style="shape=waypoint;sketch=0;fillStyle=solid;size=6;pointerEvents=1;points=[];fillColor=#0050ef;resizable=0;rotatable=0;perimeter=centerPerimeter;snapToPoint=1;strokeColor=#001DBC;fontColor=#ffffff;fontSize=18;" vertex="1" parent="XdBmEQdL2nDU0bVJO9cl-128">
          <mxGeometry x="101" y="51.5" width="20" height="20" as="geometry" />
        </mxCell>
        <mxCell id="XdBmEQdL2nDU0bVJO9cl-151" value="" style="shape=waypoint;sketch=0;fillStyle=solid;size=6;pointerEvents=1;points=[];fillColor=#0050ef;resizable=0;rotatable=0;perimeter=centerPerimeter;snapToPoint=1;strokeColor=#001DBC;fontColor=#ffffff;fontSize=18;" vertex="1" parent="XdBmEQdL2nDU0bVJO9cl-128">
          <mxGeometry x="101" y="35" width="20" height="20" as="geometry" />
        </mxCell>
        <mxCell id="XdBmEQdL2nDU0bVJO9cl-152" value="" style="shape=waypoint;sketch=0;fillStyle=solid;size=6;pointerEvents=1;points=[];fillColor=#0050ef;resizable=0;rotatable=0;perimeter=centerPerimeter;snapToPoint=1;strokeColor=#001DBC;fontColor=#ffffff;fontSize=18;" vertex="1" parent="XdBmEQdL2nDU0bVJO9cl-128">
          <mxGeometry x="101" y="20" width="20" height="20" as="geometry" />
        </mxCell>
        <mxCell id="XdBmEQdL2nDU0bVJO9cl-153" value="" style="endArrow=none;html=1;rounded=0;fontSize=18;startSize=8;endSize=8;curved=1;exitX=0.467;exitY=0.567;exitDx=0;exitDy=0;exitPerimeter=0;" edge="1" parent="XdBmEQdL2nDU0bVJO9cl-159" source="XdBmEQdL2nDU0bVJO9cl-136">
          <mxGeometry width="50" height="50" relative="1" as="geometry">
            <mxPoint x="68" y="70" as="sourcePoint" />
            <mxPoint x="58" y="58" as="targetPoint" />
          </mxGeometry>
        </mxCell>
        <mxCell id="XdBmEQdL2nDU0bVJO9cl-154" value="" style="endArrow=none;html=1;rounded=0;fontSize=18;startSize=8;endSize=8;curved=1;exitX=0.5;exitY=0.5;exitDx=0;exitDy=0;exitPerimeter=0;" edge="1" parent="XdBmEQdL2nDU0bVJO9cl-159" source="XdBmEQdL2nDU0bVJO9cl-138">
          <mxGeometry width="50" height="50" relative="1" as="geometry">
            <mxPoint x="42" y="123" as="sourcePoint" />
            <mxPoint x="57" y="60" as="targetPoint" />
          </mxGeometry>
        </mxCell>
        <mxCell id="XdBmEQdL2nDU0bVJO9cl-155" value="" style="endArrow=none;html=1;rounded=0;fontSize=18;startSize=8;endSize=8;curved=1;exitX=0.5;exitY=0.5;exitDx=0;exitDy=0;exitPerimeter=0;" edge="1" parent="XdBmEQdL2nDU0bVJO9cl-159" source="XdBmEQdL2nDU0bVJO9cl-135">
          <mxGeometry width="50" height="50" relative="1" as="geometry">
            <mxPoint x="90" y="100" as="sourcePoint" />
            <mxPoint x="58" y="60" as="targetPoint" />
          </mxGeometry>
        </mxCell>
        <mxCell id="XdBmEQdL2nDU0bVJO9cl-156" value="" style="endArrow=none;html=1;rounded=0;fontSize=18;startSize=8;endSize=8;curved=1;exitX=0.5;exitY=0.5;exitDx=0;exitDy=0;exitPerimeter=0;" edge="1" parent="XdBmEQdL2nDU0bVJO9cl-159" source="XdBmEQdL2nDU0bVJO9cl-132">
          <mxGeometry width="50" height="50" relative="1" as="geometry">
            <mxPoint x="120" y="100" as="sourcePoint" />
            <mxPoint x="58" y="60" as="targetPoint" />
          </mxGeometry>
        </mxCell>
        <mxCell id="XdBmEQdL2nDU0bVJO9cl-157" value="" style="endArrow=none;html=1;rounded=0;fontSize=18;startSize=8;endSize=8;curved=1;exitX=0.5;exitY=0.567;exitDx=0;exitDy=0;exitPerimeter=0;" edge="1" parent="XdBmEQdL2nDU0bVJO9cl-159" source="XdBmEQdL2nDU0bVJO9cl-133">
          <mxGeometry width="50" height="50" relative="1" as="geometry">
            <mxPoint x="120" y="71" as="sourcePoint" />
            <mxPoint x="58" y="60" as="targetPoint" />
          </mxGeometry>
        </mxCell>
        <mxCell id="XdBmEQdL2nDU0bVJO9cl-158" value="" style="endArrow=none;html=1;rounded=0;fontSize=18;startSize=8;endSize=8;curved=1;exitX=0.533;exitY=0.5;exitDx=0;exitDy=0;exitPerimeter=0;" edge="1" parent="XdBmEQdL2nDU0bVJO9cl-159" source="XdBmEQdL2nDU0bVJO9cl-131">
          <mxGeometry width="50" height="50" relative="1" as="geometry">
            <mxPoint x="120" y="56" as="sourcePoint" />
            <mxPoint x="58" y="58" as="targetPoint" />
          </mxGeometry>
        </mxCell>
        <mxCell id="XdBmEQdL2nDU0bVJO9cl-185" value="" style="group;fontSize=18;" vertex="1" connectable="0" parent="XdBmEQdL2nDU0bVJO9cl-254">
          <mxGeometry x="269" y="234.5" width="147" height="136.5" as="geometry" />
        </mxCell>
        <mxCell id="XdBmEQdL2nDU0bVJO9cl-186" value="" style="group;strokeWidth=4;fontSize=18;" vertex="1" connectable="0" parent="XdBmEQdL2nDU0bVJO9cl-185">
          <mxGeometry width="147" height="136.5" as="geometry" />
        </mxCell>
        <mxCell id="XdBmEQdL2nDU0bVJO9cl-187" value="" style="rounded=1;whiteSpace=wrap;html=1;fillColor=default;fontColor=#333333;strokeColor=#666666;strokeWidth=2;fontSize=18;" vertex="1" parent="XdBmEQdL2nDU0bVJO9cl-186">
          <mxGeometry width="147" height="136.5" as="geometry" />
        </mxCell>
        <mxCell id="XdBmEQdL2nDU0bVJO9cl-188" value="" style="rounded=0;whiteSpace=wrap;html=1;fillColor=#dae8fc;strokeColor=#6c8ebf;fontSize=18;" vertex="1" parent="XdBmEQdL2nDU0bVJO9cl-186">
          <mxGeometry x="19" y="22.5" width="30" height="15" as="geometry" />
        </mxCell>
        <mxCell id="XdBmEQdL2nDU0bVJO9cl-189" value="" style="rounded=0;whiteSpace=wrap;html=1;fillColor=#dae8fc;strokeColor=#6c8ebf;fontSize=18;" vertex="1" parent="XdBmEQdL2nDU0bVJO9cl-186">
          <mxGeometry x="96" y="22.5" width="30" height="15" as="geometry" />
        </mxCell>
        <mxCell id="XdBmEQdL2nDU0bVJO9cl-190" value="" style="rounded=0;whiteSpace=wrap;html=1;fillColor=#dae8fc;strokeColor=#6c8ebf;fontSize=18;" vertex="1" parent="XdBmEQdL2nDU0bVJO9cl-186">
          <mxGeometry x="96" y="67.5" width="30" height="15" as="geometry" />
        </mxCell>
        <mxCell id="XdBmEQdL2nDU0bVJO9cl-191" value="" style="rounded=0;whiteSpace=wrap;html=1;fillColor=#dae8fc;strokeColor=#6c8ebf;fontSize=18;" vertex="1" parent="XdBmEQdL2nDU0bVJO9cl-186">
          <mxGeometry x="96" y="37.5" width="30" height="15" as="geometry" />
        </mxCell>
        <mxCell id="XdBmEQdL2nDU0bVJO9cl-192" value="" style="rounded=0;whiteSpace=wrap;html=1;fillColor=#dae8fc;strokeColor=#6c8ebf;fontSize=18;" vertex="1" parent="XdBmEQdL2nDU0bVJO9cl-186">
          <mxGeometry x="96" y="52.5" width="30" height="15" as="geometry" />
        </mxCell>
        <mxCell id="XdBmEQdL2nDU0bVJO9cl-193" value="" style="rounded=0;whiteSpace=wrap;html=1;fillColor=#dae8fc;strokeColor=#6c8ebf;fontSize=18;" vertex="1" parent="XdBmEQdL2nDU0bVJO9cl-186">
          <mxGeometry x="96" y="82.5" width="30" height="15" as="geometry" />
        </mxCell>
        <mxCell id="XdBmEQdL2nDU0bVJO9cl-194" value="" style="rounded=0;whiteSpace=wrap;html=1;fillColor=#fff2cc;strokeColor=#d6b656;fontSize=18;" vertex="1" parent="XdBmEQdL2nDU0bVJO9cl-186">
          <mxGeometry x="19" y="104.5" width="30" height="15" as="geometry" />
        </mxCell>
        <mxCell id="XdBmEQdL2nDU0bVJO9cl-195" value="" style="rounded=0;whiteSpace=wrap;html=1;fillColor=#dae8fc;strokeColor=#6c8ebf;fontSize=18;" vertex="1" parent="XdBmEQdL2nDU0bVJO9cl-186">
          <mxGeometry x="66" y="67.5" width="30" height="15" as="geometry" />
        </mxCell>
        <mxCell id="XdBmEQdL2nDU0bVJO9cl-196" value="" style="rounded=0;whiteSpace=wrap;html=1;fillColor=#dae8fc;strokeColor=#6c8ebf;fontSize=18;" vertex="1" parent="XdBmEQdL2nDU0bVJO9cl-186">
          <mxGeometry x="66" y="82.5" width="30" height="15" as="geometry" />
        </mxCell>
        <mxCell id="XdBmEQdL2nDU0bVJO9cl-197" value="" style="rounded=0;whiteSpace=wrap;html=1;fillColor=#f8cecc;strokeColor=#b85450;fontSize=18;" vertex="1" parent="XdBmEQdL2nDU0bVJO9cl-186">
          <mxGeometry x="51" y="52.5" width="15" height="15" as="geometry" />
        </mxCell>
        <mxCell id="XdBmEQdL2nDU0bVJO9cl-198" value="" style="shape=waypoint;sketch=0;fillStyle=solid;size=6;pointerEvents=1;points=[];fillColor=none;resizable=0;rotatable=0;perimeter=centerPerimeter;snapToPoint=1;fontSize=18;" vertex="1" parent="XdBmEQdL2nDU0bVJO9cl-186">
          <mxGeometry x="48.5" y="50" width="20" height="20" as="geometry" />
        </mxCell>
        <mxCell id="XdBmEQdL2nDU0bVJO9cl-199" value="" style="endArrow=none;html=1;rounded=0;fontSize=18;startSize=8;endSize=8;curved=1;exitX=0.401;exitY=0.833;exitDx=0;exitDy=0;exitPerimeter=0;" edge="1" parent="XdBmEQdL2nDU0bVJO9cl-186" source="XdBmEQdL2nDU0bVJO9cl-198">
          <mxGeometry width="50" height="50" relative="1" as="geometry">
            <mxPoint x="12" y="94" as="sourcePoint" />
            <mxPoint x="34" y="30" as="targetPoint" />
          </mxGeometry>
        </mxCell>
        <mxCell id="XdBmEQdL2nDU0bVJO9cl-200" value="" style="endArrow=none;html=1;rounded=0;fontSize=18;startSize=8;endSize=8;curved=1;" edge="1" parent="XdBmEQdL2nDU0bVJO9cl-186">
          <mxGeometry width="50" height="50" relative="1" as="geometry">
            <mxPoint x="81" y="76" as="sourcePoint" />
            <mxPoint x="58" y="60.75" as="targetPoint" />
          </mxGeometry>
        </mxCell>
        <mxCell id="XdBmEQdL2nDU0bVJO9cl-201" value="" style="endArrow=none;html=1;rounded=0;fontSize=18;startSize=8;endSize=8;curved=1;exitX=0.5;exitY=0.55;exitDx=0;exitDy=0;exitPerimeter=0;" edge="1" parent="XdBmEQdL2nDU0bVJO9cl-186" source="XdBmEQdL2nDU0bVJO9cl-192">
          <mxGeometry width="50" height="50" relative="1" as="geometry">
            <mxPoint x="111" y="75.75" as="sourcePoint" />
            <mxPoint x="59" y="59" as="targetPoint" />
          </mxGeometry>
        </mxCell>
        <mxCell id="XdBmEQdL2nDU0bVJO9cl-203" value="" style="shape=waypoint;sketch=0;fillStyle=solid;size=6;pointerEvents=1;points=[];fillColor=#0050ef;resizable=0;rotatable=0;perimeter=centerPerimeter;snapToPoint=1;strokeColor=#001DBC;fontColor=#ffffff;fontSize=18;" vertex="1" parent="XdBmEQdL2nDU0bVJO9cl-186">
          <mxGeometry x="24" y="20" width="20" height="20" as="geometry" />
        </mxCell>
        <mxCell id="XdBmEQdL2nDU0bVJO9cl-204" value="" style="shape=waypoint;sketch=0;fillStyle=solid;size=6;pointerEvents=1;points=[];fillColor=#0050ef;resizable=0;rotatable=0;perimeter=centerPerimeter;snapToPoint=1;strokeColor=#001DBC;fontColor=#ffffff;fontSize=18;" vertex="1" parent="XdBmEQdL2nDU0bVJO9cl-186">
          <mxGeometry x="71" y="80" width="20" height="20" as="geometry" />
        </mxCell>
        <mxCell id="XdBmEQdL2nDU0bVJO9cl-205" value="" style="shape=waypoint;sketch=0;fillStyle=solid;size=6;pointerEvents=1;points=[];fillColor=#0050ef;resizable=0;rotatable=0;perimeter=centerPerimeter;snapToPoint=1;strokeColor=#001DBC;fontColor=#ffffff;fontSize=18;" vertex="1" parent="XdBmEQdL2nDU0bVJO9cl-186">
          <mxGeometry x="71" y="67.5" width="20" height="20" as="geometry" />
        </mxCell>
        <mxCell id="XdBmEQdL2nDU0bVJO9cl-206" value="" style="shape=waypoint;sketch=0;fillStyle=solid;size=6;pointerEvents=1;points=[];fillColor=#0050ef;resizable=0;rotatable=0;perimeter=centerPerimeter;snapToPoint=1;strokeColor=#001DBC;fontColor=#ffffff;fontSize=18;" vertex="1" parent="XdBmEQdL2nDU0bVJO9cl-186">
          <mxGeometry x="101" y="80" width="20" height="20" as="geometry" />
        </mxCell>
        <mxCell id="XdBmEQdL2nDU0bVJO9cl-207" value="" style="shape=waypoint;sketch=0;fillStyle=solid;size=6;pointerEvents=1;points=[];fillColor=#0050ef;resizable=0;rotatable=0;perimeter=centerPerimeter;snapToPoint=1;strokeColor=#001DBC;fontColor=#ffffff;fontSize=18;" vertex="1" parent="XdBmEQdL2nDU0bVJO9cl-186">
          <mxGeometry x="101" y="65" width="20" height="20" as="geometry" />
        </mxCell>
        <mxCell id="XdBmEQdL2nDU0bVJO9cl-208" value="" style="shape=waypoint;sketch=0;fillStyle=solid;size=6;pointerEvents=1;points=[];fillColor=#0050ef;resizable=0;rotatable=0;perimeter=centerPerimeter;snapToPoint=1;strokeColor=#001DBC;fontColor=#ffffff;fontSize=18;" vertex="1" parent="XdBmEQdL2nDU0bVJO9cl-186">
          <mxGeometry x="101" y="51.5" width="20" height="20" as="geometry" />
        </mxCell>
        <mxCell id="XdBmEQdL2nDU0bVJO9cl-209" value="" style="shape=waypoint;sketch=0;fillStyle=solid;size=6;pointerEvents=1;points=[];fillColor=#0050ef;resizable=0;rotatable=0;perimeter=centerPerimeter;snapToPoint=1;strokeColor=#001DBC;fontColor=#ffffff;fontSize=18;" vertex="1" parent="XdBmEQdL2nDU0bVJO9cl-186">
          <mxGeometry x="101" y="35" width="20" height="20" as="geometry" />
        </mxCell>
        <mxCell id="XdBmEQdL2nDU0bVJO9cl-210" value="" style="shape=waypoint;sketch=0;fillStyle=solid;size=6;pointerEvents=1;points=[];fillColor=#0050ef;resizable=0;rotatable=0;perimeter=centerPerimeter;snapToPoint=1;strokeColor=#001DBC;fontColor=#ffffff;fontSize=18;" vertex="1" parent="XdBmEQdL2nDU0bVJO9cl-186">
          <mxGeometry x="101" y="20" width="20" height="20" as="geometry" />
        </mxCell>
        <mxCell id="XdBmEQdL2nDU0bVJO9cl-212" value="" style="endArrow=none;html=1;rounded=0;fontSize=18;startSize=8;endSize=8;curved=1;exitX=0.5;exitY=0.5;exitDx=0;exitDy=0;exitPerimeter=0;" edge="1" parent="XdBmEQdL2nDU0bVJO9cl-185" source="XdBmEQdL2nDU0bVJO9cl-196">
          <mxGeometry width="50" height="50" relative="1" as="geometry">
            <mxPoint x="42" y="123" as="sourcePoint" />
            <mxPoint x="57" y="60" as="targetPoint" />
          </mxGeometry>
        </mxCell>
        <mxCell id="XdBmEQdL2nDU0bVJO9cl-213" value="" style="endArrow=none;html=1;rounded=0;fontSize=18;startSize=8;endSize=8;curved=1;exitX=0.5;exitY=0.5;exitDx=0;exitDy=0;exitPerimeter=0;" edge="1" parent="XdBmEQdL2nDU0bVJO9cl-185" source="XdBmEQdL2nDU0bVJO9cl-193">
          <mxGeometry width="50" height="50" relative="1" as="geometry">
            <mxPoint x="90" y="100" as="sourcePoint" />
            <mxPoint x="58" y="60" as="targetPoint" />
          </mxGeometry>
        </mxCell>
        <mxCell id="XdBmEQdL2nDU0bVJO9cl-214" value="" style="endArrow=none;html=1;rounded=0;fontSize=18;startSize=8;endSize=8;curved=1;exitX=0.5;exitY=0.5;exitDx=0;exitDy=0;exitPerimeter=0;" edge="1" parent="XdBmEQdL2nDU0bVJO9cl-185" source="XdBmEQdL2nDU0bVJO9cl-190">
          <mxGeometry width="50" height="50" relative="1" as="geometry">
            <mxPoint x="120" y="100" as="sourcePoint" />
            <mxPoint x="58" y="60" as="targetPoint" />
          </mxGeometry>
        </mxCell>
        <mxCell id="XdBmEQdL2nDU0bVJO9cl-215" value="" style="endArrow=none;html=1;rounded=0;fontSize=18;startSize=8;endSize=8;curved=1;exitX=0.5;exitY=0.567;exitDx=0;exitDy=0;exitPerimeter=0;" edge="1" parent="XdBmEQdL2nDU0bVJO9cl-185" source="XdBmEQdL2nDU0bVJO9cl-191">
          <mxGeometry width="50" height="50" relative="1" as="geometry">
            <mxPoint x="120" y="71" as="sourcePoint" />
            <mxPoint x="58" y="60" as="targetPoint" />
          </mxGeometry>
        </mxCell>
        <mxCell id="XdBmEQdL2nDU0bVJO9cl-216" value="" style="endArrow=none;html=1;rounded=0;fontSize=18;startSize=8;endSize=8;curved=1;exitX=0.533;exitY=0.5;exitDx=0;exitDy=0;exitPerimeter=0;" edge="1" parent="XdBmEQdL2nDU0bVJO9cl-185" source="XdBmEQdL2nDU0bVJO9cl-189">
          <mxGeometry width="50" height="50" relative="1" as="geometry">
            <mxPoint x="120" y="56" as="sourcePoint" />
            <mxPoint x="58" y="58" as="targetPoint" />
          </mxGeometry>
        </mxCell>
        <mxCell id="XdBmEQdL2nDU0bVJO9cl-229" value="" style="group;fontSize=18;" vertex="1" connectable="0" parent="XdBmEQdL2nDU0bVJO9cl-254">
          <mxGeometry x="35" y="152.5" width="147" height="136.5" as="geometry" />
        </mxCell>
        <mxCell id="XdBmEQdL2nDU0bVJO9cl-96" value="" style="group;strokeWidth=4;fontSize=18;" vertex="1" connectable="0" parent="XdBmEQdL2nDU0bVJO9cl-229">
          <mxGeometry width="147" height="136.5" as="geometry" />
        </mxCell>
        <mxCell id="XdBmEQdL2nDU0bVJO9cl-97" value="" style="rounded=1;whiteSpace=wrap;html=1;fillColor=default;fontColor=#333333;strokeColor=#666666;strokeWidth=2;fontSize=18;" vertex="1" parent="XdBmEQdL2nDU0bVJO9cl-96">
          <mxGeometry width="147" height="136.5" as="geometry" />
        </mxCell>
        <mxCell id="XdBmEQdL2nDU0bVJO9cl-98" value="" style="rounded=0;whiteSpace=wrap;html=1;fillColor=#dae8fc;strokeColor=#6c8ebf;fontSize=18;" vertex="1" parent="XdBmEQdL2nDU0bVJO9cl-96">
          <mxGeometry x="19" y="23.5" width="30" height="15" as="geometry" />
        </mxCell>
        <mxCell id="XdBmEQdL2nDU0bVJO9cl-99" value="" style="rounded=0;whiteSpace=wrap;html=1;fillColor=#dae8fc;strokeColor=#6c8ebf;fontSize=18;" vertex="1" parent="XdBmEQdL2nDU0bVJO9cl-96">
          <mxGeometry x="96" y="23.5" width="30" height="15" as="geometry" />
        </mxCell>
        <mxCell id="XdBmEQdL2nDU0bVJO9cl-100" value="" style="rounded=0;whiteSpace=wrap;html=1;fillColor=#dae8fc;strokeColor=#6c8ebf;fontSize=18;" vertex="1" parent="XdBmEQdL2nDU0bVJO9cl-96">
          <mxGeometry x="96" y="68.5" width="30" height="15" as="geometry" />
        </mxCell>
        <mxCell id="XdBmEQdL2nDU0bVJO9cl-101" value="" style="rounded=0;whiteSpace=wrap;html=1;fillColor=#dae8fc;strokeColor=#6c8ebf;fontSize=18;" vertex="1" parent="XdBmEQdL2nDU0bVJO9cl-96">
          <mxGeometry x="96" y="38.5" width="30" height="15" as="geometry" />
        </mxCell>
        <mxCell id="XdBmEQdL2nDU0bVJO9cl-102" value="" style="rounded=0;whiteSpace=wrap;html=1;fillColor=#dae8fc;strokeColor=#6c8ebf;fontSize=18;" vertex="1" parent="XdBmEQdL2nDU0bVJO9cl-96">
          <mxGeometry x="96" y="53.5" width="30" height="15" as="geometry" />
        </mxCell>
        <mxCell id="XdBmEQdL2nDU0bVJO9cl-103" value="" style="rounded=0;whiteSpace=wrap;html=1;fillColor=#dae8fc;strokeColor=#6c8ebf;fontSize=18;" vertex="1" parent="XdBmEQdL2nDU0bVJO9cl-96">
          <mxGeometry x="96" y="83.5" width="30" height="15" as="geometry" />
        </mxCell>
        <mxCell id="XdBmEQdL2nDU0bVJO9cl-104" value="" style="rounded=0;whiteSpace=wrap;html=1;fillColor=#dae8fc;strokeColor=#6c8ebf;fontSize=18;" vertex="1" parent="XdBmEQdL2nDU0bVJO9cl-96">
          <mxGeometry x="19" y="105.5" width="30" height="15" as="geometry" />
        </mxCell>
        <mxCell id="XdBmEQdL2nDU0bVJO9cl-105" value="" style="rounded=0;whiteSpace=wrap;html=1;fillColor=#dae8fc;strokeColor=#6c8ebf;fontSize=18;" vertex="1" parent="XdBmEQdL2nDU0bVJO9cl-96">
          <mxGeometry x="66" y="68.5" width="30" height="15" as="geometry" />
        </mxCell>
        <mxCell id="XdBmEQdL2nDU0bVJO9cl-106" value="" style="rounded=0;whiteSpace=wrap;html=1;fillColor=#dae8fc;strokeColor=#6c8ebf;fontSize=18;" vertex="1" parent="XdBmEQdL2nDU0bVJO9cl-96">
          <mxGeometry x="66" y="83.5" width="30" height="15" as="geometry" />
        </mxCell>
        <mxCell id="XdBmEQdL2nDU0bVJO9cl-107" value="" style="rounded=0;whiteSpace=wrap;html=1;fillColor=#f8cecc;strokeColor=#b85450;fontSize=18;" vertex="1" parent="XdBmEQdL2nDU0bVJO9cl-96">
          <mxGeometry x="51" y="53.5" width="15" height="15" as="geometry" />
        </mxCell>
        <mxCell id="XdBmEQdL2nDU0bVJO9cl-108" value="" style="shape=waypoint;sketch=0;fillStyle=solid;size=6;pointerEvents=1;points=[];fillColor=none;resizable=0;rotatable=0;perimeter=centerPerimeter;snapToPoint=1;fontSize=18;" vertex="1" parent="XdBmEQdL2nDU0bVJO9cl-96">
          <mxGeometry x="48.5" y="51" width="20" height="20" as="geometry" />
        </mxCell>
        <mxCell id="XdBmEQdL2nDU0bVJO9cl-110" value="" style="endArrow=none;html=1;rounded=0;fontSize=18;startSize=8;endSize=8;curved=1;exitX=0.401;exitY=0.833;exitDx=0;exitDy=0;exitPerimeter=0;" edge="1" parent="XdBmEQdL2nDU0bVJO9cl-96" source="XdBmEQdL2nDU0bVJO9cl-108">
          <mxGeometry width="50" height="50" relative="1" as="geometry">
            <mxPoint x="12" y="95" as="sourcePoint" />
            <mxPoint x="34" y="31" as="targetPoint" />
          </mxGeometry>
        </mxCell>
        <mxCell id="XdBmEQdL2nDU0bVJO9cl-115" value="" style="endArrow=none;html=1;rounded=0;fontSize=18;startSize=8;endSize=8;curved=1;" edge="1" parent="XdBmEQdL2nDU0bVJO9cl-96">
          <mxGeometry width="50" height="50" relative="1" as="geometry">
            <mxPoint x="81" y="77" as="sourcePoint" />
            <mxPoint x="58" y="61.75" as="targetPoint" />
          </mxGeometry>
        </mxCell>
        <mxCell id="XdBmEQdL2nDU0bVJO9cl-116" value="" style="endArrow=none;html=1;rounded=0;fontSize=18;startSize=8;endSize=8;curved=1;exitX=0.5;exitY=0.55;exitDx=0;exitDy=0;exitPerimeter=0;" edge="1" parent="XdBmEQdL2nDU0bVJO9cl-96" source="XdBmEQdL2nDU0bVJO9cl-102">
          <mxGeometry width="50" height="50" relative="1" as="geometry">
            <mxPoint x="111" y="76.75" as="sourcePoint" />
            <mxPoint x="59" y="60" as="targetPoint" />
          </mxGeometry>
        </mxCell>
        <mxCell id="XdBmEQdL2nDU0bVJO9cl-119" value="" style="shape=waypoint;sketch=0;fillStyle=solid;size=6;pointerEvents=1;points=[];fillColor=#0050ef;resizable=0;rotatable=0;perimeter=centerPerimeter;snapToPoint=1;strokeColor=#001DBC;fontColor=#ffffff;fontSize=18;" vertex="1" parent="XdBmEQdL2nDU0bVJO9cl-96">
          <mxGeometry x="24" y="103" width="20" height="20" as="geometry" />
        </mxCell>
        <mxCell id="XdBmEQdL2nDU0bVJO9cl-120" value="" style="shape=waypoint;sketch=0;fillStyle=solid;size=6;pointerEvents=1;points=[];fillColor=#0050ef;resizable=0;rotatable=0;perimeter=centerPerimeter;snapToPoint=1;strokeColor=#001DBC;fontColor=#ffffff;fontSize=18;" vertex="1" parent="XdBmEQdL2nDU0bVJO9cl-96">
          <mxGeometry x="24" y="21" width="20" height="20" as="geometry" />
        </mxCell>
        <mxCell id="XdBmEQdL2nDU0bVJO9cl-121" value="" style="shape=waypoint;sketch=0;fillStyle=solid;size=6;pointerEvents=1;points=[];fillColor=#0050ef;resizable=0;rotatable=0;perimeter=centerPerimeter;snapToPoint=1;strokeColor=#001DBC;fontColor=#ffffff;fontSize=18;" vertex="1" parent="XdBmEQdL2nDU0bVJO9cl-96">
          <mxGeometry x="71" y="81" width="20" height="20" as="geometry" />
        </mxCell>
        <mxCell id="XdBmEQdL2nDU0bVJO9cl-122" value="" style="shape=waypoint;sketch=0;fillStyle=solid;size=6;pointerEvents=1;points=[];fillColor=#0050ef;resizable=0;rotatable=0;perimeter=centerPerimeter;snapToPoint=1;strokeColor=#001DBC;fontColor=#ffffff;fontSize=18;" vertex="1" parent="XdBmEQdL2nDU0bVJO9cl-96">
          <mxGeometry x="71" y="68.5" width="20" height="20" as="geometry" />
        </mxCell>
        <mxCell id="XdBmEQdL2nDU0bVJO9cl-123" value="" style="shape=waypoint;sketch=0;fillStyle=solid;size=6;pointerEvents=1;points=[];fillColor=#0050ef;resizable=0;rotatable=0;perimeter=centerPerimeter;snapToPoint=1;strokeColor=#001DBC;fontColor=#ffffff;fontSize=18;" vertex="1" parent="XdBmEQdL2nDU0bVJO9cl-96">
          <mxGeometry x="101" y="81" width="20" height="20" as="geometry" />
        </mxCell>
        <mxCell id="XdBmEQdL2nDU0bVJO9cl-124" value="" style="shape=waypoint;sketch=0;fillStyle=solid;size=6;pointerEvents=1;points=[];fillColor=#0050ef;resizable=0;rotatable=0;perimeter=centerPerimeter;snapToPoint=1;strokeColor=#001DBC;fontColor=#ffffff;fontSize=18;" vertex="1" parent="XdBmEQdL2nDU0bVJO9cl-96">
          <mxGeometry x="101" y="66" width="20" height="20" as="geometry" />
        </mxCell>
        <mxCell id="XdBmEQdL2nDU0bVJO9cl-125" value="" style="shape=waypoint;sketch=0;fillStyle=solid;size=6;pointerEvents=1;points=[];fillColor=#0050ef;resizable=0;rotatable=0;perimeter=centerPerimeter;snapToPoint=1;strokeColor=#001DBC;fontColor=#ffffff;fontSize=18;" vertex="1" parent="XdBmEQdL2nDU0bVJO9cl-96">
          <mxGeometry x="101" y="52.5" width="20" height="20" as="geometry" />
        </mxCell>
        <mxCell id="XdBmEQdL2nDU0bVJO9cl-126" value="" style="shape=waypoint;sketch=0;fillStyle=solid;size=6;pointerEvents=1;points=[];fillColor=#0050ef;resizable=0;rotatable=0;perimeter=centerPerimeter;snapToPoint=1;strokeColor=#001DBC;fontColor=#ffffff;fontSize=18;" vertex="1" parent="XdBmEQdL2nDU0bVJO9cl-96">
          <mxGeometry x="101" y="36" width="20" height="20" as="geometry" />
        </mxCell>
        <mxCell id="XdBmEQdL2nDU0bVJO9cl-127" value="" style="shape=waypoint;sketch=0;fillStyle=solid;size=6;pointerEvents=1;points=[];fillColor=#0050ef;resizable=0;rotatable=0;perimeter=centerPerimeter;snapToPoint=1;strokeColor=#001DBC;fontColor=#ffffff;fontSize=18;" vertex="1" parent="XdBmEQdL2nDU0bVJO9cl-96">
          <mxGeometry x="101" y="21" width="20" height="20" as="geometry" />
        </mxCell>
        <mxCell id="XdBmEQdL2nDU0bVJO9cl-111" value="" style="endArrow=none;html=1;rounded=0;fontSize=18;startSize=8;endSize=8;curved=1;exitX=0.467;exitY=0.567;exitDx=0;exitDy=0;exitPerimeter=0;" edge="1" parent="XdBmEQdL2nDU0bVJO9cl-229" source="XdBmEQdL2nDU0bVJO9cl-104">
          <mxGeometry width="50" height="50" relative="1" as="geometry">
            <mxPoint x="69" y="71" as="sourcePoint" />
            <mxPoint x="59" y="59" as="targetPoint" />
          </mxGeometry>
        </mxCell>
        <mxCell id="XdBmEQdL2nDU0bVJO9cl-112" value="" style="endArrow=none;html=1;rounded=0;fontSize=18;startSize=8;endSize=8;curved=1;exitX=0.5;exitY=0.5;exitDx=0;exitDy=0;exitPerimeter=0;" edge="1" parent="XdBmEQdL2nDU0bVJO9cl-229" source="XdBmEQdL2nDU0bVJO9cl-106">
          <mxGeometry width="50" height="50" relative="1" as="geometry">
            <mxPoint x="43" y="124" as="sourcePoint" />
            <mxPoint x="58" y="61" as="targetPoint" />
          </mxGeometry>
        </mxCell>
        <mxCell id="XdBmEQdL2nDU0bVJO9cl-113" value="" style="endArrow=none;html=1;rounded=0;fontSize=18;startSize=8;endSize=8;curved=1;exitX=0.5;exitY=0.5;exitDx=0;exitDy=0;exitPerimeter=0;" edge="1" parent="XdBmEQdL2nDU0bVJO9cl-229" source="XdBmEQdL2nDU0bVJO9cl-103">
          <mxGeometry width="50" height="50" relative="1" as="geometry">
            <mxPoint x="91" y="101" as="sourcePoint" />
            <mxPoint x="59" y="61" as="targetPoint" />
          </mxGeometry>
        </mxCell>
        <mxCell id="XdBmEQdL2nDU0bVJO9cl-114" value="" style="endArrow=none;html=1;rounded=0;fontSize=18;startSize=8;endSize=8;curved=1;exitX=0.5;exitY=0.5;exitDx=0;exitDy=0;exitPerimeter=0;" edge="1" parent="XdBmEQdL2nDU0bVJO9cl-229" source="XdBmEQdL2nDU0bVJO9cl-100">
          <mxGeometry width="50" height="50" relative="1" as="geometry">
            <mxPoint x="121" y="101" as="sourcePoint" />
            <mxPoint x="59" y="61" as="targetPoint" />
          </mxGeometry>
        </mxCell>
        <mxCell id="XdBmEQdL2nDU0bVJO9cl-117" value="" style="endArrow=none;html=1;rounded=0;fontSize=18;startSize=8;endSize=8;curved=1;exitX=0.5;exitY=0.567;exitDx=0;exitDy=0;exitPerimeter=0;" edge="1" parent="XdBmEQdL2nDU0bVJO9cl-229" source="XdBmEQdL2nDU0bVJO9cl-101">
          <mxGeometry width="50" height="50" relative="1" as="geometry">
            <mxPoint x="121" y="72" as="sourcePoint" />
            <mxPoint x="59" y="61" as="targetPoint" />
          </mxGeometry>
        </mxCell>
        <mxCell id="XdBmEQdL2nDU0bVJO9cl-118" value="" style="endArrow=none;html=1;rounded=0;fontSize=18;startSize=8;endSize=8;curved=1;exitX=0.533;exitY=0.5;exitDx=0;exitDy=0;exitPerimeter=0;" edge="1" parent="XdBmEQdL2nDU0bVJO9cl-229" source="XdBmEQdL2nDU0bVJO9cl-99">
          <mxGeometry width="50" height="50" relative="1" as="geometry">
            <mxPoint x="121" y="57" as="sourcePoint" />
            <mxPoint x="59" y="59" as="targetPoint" />
          </mxGeometry>
        </mxCell>
        <mxCell id="XdBmEQdL2nDU0bVJO9cl-249" style="edgeStyle=none;curved=1;rounded=0;orthogonalLoop=1;jettySize=auto;html=1;exitX=1;exitY=0.5;exitDx=0;exitDy=0;entryX=0;entryY=0.5;entryDx=0;entryDy=0;fontSize=18;startSize=8;endSize=8;" edge="1" parent="XdBmEQdL2nDU0bVJO9cl-254" source="XdBmEQdL2nDU0bVJO9cl-97" target="XdBmEQdL2nDU0bVJO9cl-129">
          <mxGeometry relative="1" as="geometry" />
        </mxCell>
        <mxCell id="XdBmEQdL2nDU0bVJO9cl-250" style="edgeStyle=none;curved=1;rounded=0;orthogonalLoop=1;jettySize=auto;html=1;exitX=1;exitY=0.5;exitDx=0;exitDy=0;entryX=0;entryY=0.5;entryDx=0;entryDy=0;fontSize=18;startSize=8;endSize=8;" edge="1" parent="XdBmEQdL2nDU0bVJO9cl-254" source="XdBmEQdL2nDU0bVJO9cl-97" target="XdBmEQdL2nDU0bVJO9cl-187">
          <mxGeometry relative="1" as="geometry" />
        </mxCell>
        <mxCell id="XdBmEQdL2nDU0bVJO9cl-255" style="edgeStyle=none;curved=1;rounded=0;orthogonalLoop=1;jettySize=auto;html=1;exitX=0.5;exitY=1;exitDx=0;exitDy=0;fontSize=18;startSize=8;endSize=8;" edge="1" parent="1" source="XdBmEQdL2nDU0bVJO9cl-2" target="XdBmEQdL2nDU0bVJO9cl-2">
          <mxGeometry relative="1" as="geometry" />
        </mxCell>
      </root>
    </mxGraphModel>
  </diagram>
</mxfile>
